<svg width="51" height="51" viewBox="0 0 51 51" fill="none" xmlns="http://www.w3.org/2000/svg">
<path d="M51 11.637V27.0753C51 27.0753 47.6958 27.7262 47.0152 27.8118C46.3366 27.8972 44.2043 28.5857 42.6589 27.1004C40.2758 24.8163 31.8083 16.3956 31.8083 16.3956C31.8083 16.3956 30.3484 14.963 28.0042 16.2011C25.8523 17.3353 22.6625 18.9974 21.3301 19.6447C18.8114 20.9853 16.7239 18.8583 16.7239 17.2381C16.7239 15.9814 17.5081 15.1285 18.6291 14.5012C21.6671 12.6595 28.0705 9.06522 30.7375 7.64817C32.3586 6.78597 33.5266 6.71208 35.7522 8.58704C38.4933 10.8923 40.9327 12.9937 40.9327 12.9937C40.9327 12.9937 41.7283 13.6577 42.9972 13.3903C46.113 12.7315 51 11.637 51 11.637ZM17.2975 37.7956C17.7075 36.7421 17.5704 35.5638 16.7843 34.7554C16.0779 34.0323 15.0465 33.8417 14.0631 34.0671C14.3381 33.0917 14.1862 32.0535 13.476 31.3209C12.7674 30.5996 11.738 30.4052 10.7547 30.6327C11.0277 29.6587 10.8762 28.6206 10.1656 27.8901C9.05282 26.7488 7.12806 26.7977 5.86361 28.003C4.60585 29.2099 3.80013 31.3966 4.92268 32.6837C6.04338 33.9643 7.33108 33.1851 8.31275 32.9614C8.03965 33.9354 7.22139 34.8413 8.2291 36.1161C9.23588 37.3916 10.6374 36.6178 11.6201 36.3961C11.3461 37.3664 10.5635 38.3633 11.5325 39.5453C12.5103 40.7309 14.1117 40.0992 15.1695 39.7707C14.7613 40.8202 13.8875 41.9515 15.0101 43.2192C16.1309 44.4961 18.721 43.9053 19.9862 42.6982C21.2479 41.4913 21.369 39.5785 20.2593 38.4335C19.493 37.6479 18.3508 37.4652 17.2975 37.7956ZM40.3827 29.7638C31.2368 20.6178 35.5386 24.9214 30.6168 19.989C30.6168 19.989 29.1375 18.5164 27.188 19.3718C25.8194 19.9715 24.0574 20.7888 22.7317 21.4128C21.2748 22.1768 20.2263 22.4132 19.734 22.4099C16.9176 22.3915 14.6326 20.1278 14.6326 17.3142C14.6326 15.4889 15.6016 13.8998 17.0469 12.9978C19.0792 11.5914 23.7571 9.1033 23.7571 9.1033C23.7571 9.1033 22.332 7.29749 19.2102 7.29749C16.0893 7.29749 9.56887 11.5691 9.56887 11.5691C9.56887 11.5691 7.71912 12.7539 5.08228 11.6867L0 9.91694V27.5827C0 27.5827 1.45121 28.0027 2.75517 28.5353C3.04968 27.6954 3.52487 26.9199 4.18406 26.2793C6.34734 24.2188 9.93303 24.1974 11.9012 26.2241C12.4941 26.8401 12.9079 27.5751 13.1191 28.3875C13.9121 28.6323 14.6305 29.0659 15.2077 29.6607C15.8024 30.2726 16.2146 31.0116 16.4275 31.8199C17.2197 32.0649 17.937 32.5002 18.5162 33.0954C19.1685 33.768 19.6031 34.5806 19.806 35.4609C20.634 35.7021 21.3823 36.1508 21.985 36.767C23.1679 37.9819 23.5877 39.6303 23.3333 41.2203C23.3354 41.2203 23.3393 41.2203 23.3411 41.2239C23.3605 41.2493 24.074 42.0447 24.5189 42.4933C25.3909 43.3661 26.8148 43.3661 27.6894 42.4933C28.5583 41.6208 28.5621 40.1998 27.6894 39.3228C27.6581 39.2917 24.5435 36.0338 24.7942 35.7812C25.043 35.5303 29.0112 39.6593 29.0851 39.7349C29.9559 40.6059 31.3788 40.6059 32.2536 39.7349C33.1263 38.8624 33.1244 37.4413 32.2536 36.5664C32.2108 36.5257 32.0322 36.3546 31.9659 36.2864C31.9659 36.2864 28.0316 32.7816 28.331 32.4822C28.6342 32.1809 33.5211 36.7415 33.5291 36.7415C34.4075 37.5326 35.7607 37.5267 36.6058 36.6812C37.4281 35.859 37.4457 34.5584 36.7167 33.682C36.7013 33.6354 32.9923 29.7593 33.2818 29.4677C33.5755 29.1723 37.2454 32.9512 37.2531 32.959C38.122 33.8299 39.5469 33.8299 40.4217 32.959C41.2925 32.0881 41.2925 30.6653 40.4217 29.7866C40.4098 29.7792 40.3943 29.7714 40.3827 29.7638Z" fill="white"/>
</svg>
