<svg width="54" height="54" viewBox="0 0 54 54" fill="none" xmlns="http://www.w3.org/2000/svg">
<path d="M47.5794 12.7974H6.42141C5.60486 12.7974 4.94043 13.4617 4.94043 14.2783V36.0897C4.94043 36.9063 5.60474 37.5707 6.42141 37.5707H47.5794C48.396 37.5707 49.0604 36.9064 49.0604 36.0897V14.2783C49.0603 13.4617 48.396 12.7974 47.5794 12.7974ZM47.4518 35.9622H6.54894V14.4059H47.4518V35.9622Z" fill="white"/>
<path d="M52.0596 38.8628V12.5002C52.0596 11.0259 50.8602 9.82654 49.3859 9.82654H4.61413C3.13981 9.82654 1.94044 11.0259 1.94044 12.5002V38.8628H0V41.2929C0 42.8813 1.29232 44.1735 2.88061 44.1735H51.1193C52.7077 44.1735 53.9999 42.8812 53.9999 41.2929V38.8628H52.0596ZM3.54895 12.5002C3.54895 11.9129 4.02679 11.435 4.61413 11.435H49.3859C49.9732 11.435 50.4511 11.9129 50.4511 12.5002V38.8628H3.54895V12.5002ZM52.3915 41.2929C52.3915 41.9943 51.8208 42.565 51.1194 42.565H2.88061C2.17919 42.565 1.60851 41.9943 1.60851 41.2929V40.4713H52.3915V41.2929Z" fill="white"/>
<path d="M28.2989 16.9536H10.9785V18.5621H28.2989V16.9536Z" fill="white"/>
<path d="M23.2048 20.1876H10.9785V21.7961H23.2048V20.1876Z" fill="white"/>
<path d="M35.1254 23.4218H10.9785V25.0303H35.1254V23.4218Z" fill="white"/>
<path d="M26.8727 26.6558H10.9785V28.2643H26.8727V26.6558Z" fill="white"/>
</svg>
