<svg width="22" height="22" viewBox="0 0 22 22" fill="none" xmlns="http://www.w3.org/2000/svg">
<path d="M21.3386 17.0417L17.2136 14.2853C16.527 13.8261 15.8657 13.8421 15.2937 14.3124C13.6877 15.6292 12.7353 15.2515 12.5803 15.1736C11.6719 14.7189 10.8139 14.2899 9.49071 12.9676C7.84804 11.324 7.25496 10.2749 6.82688 9.42013C6.65592 9.07821 6.45883 7.92871 7.58313 6.73017C8.10883 6.17054 8.15742 5.48304 7.72017 4.79554C7.38329 4.26571 7.38329 4.26571 7.11838 3.87613C6.85713 3.49112 6.33508 2.72204 4.95825 0.661375C4.66079 0.216792 4.23821 0 3.66667 0C3.01858 0 2.69042 0.328625 2.42596 0.592625L1.05096 1.96763C0.0774583 2.94067 0 3.49846 0 4.125C0 4.91379 1.13896 10.0554 6.5505 15.4481C11.9446 20.8606 17.0812 22 17.8695 22H17.8998C18.5208 21.9908 19.0726 21.9088 20.0319 20.949L21.4069 19.574C21.6714 19.31 22 18.9814 22 18.3333C22 17.7613 21.7832 17.3388 21.3386 17.0417ZM20.7593 18.926L19.3843 20.301C18.6125 21.0728 18.277 21.0778 17.8695 21.0833C17.8131 21.0815 12.8778 20.4999 7.19858 14.8C1.56521 9.18638 0.917583 4.169 0.916667 4.125C0.916667 3.71846 0.916667 3.39808 1.69858 2.61571L3.07358 1.24071C3.31512 1.00008 3.41138 0.916667 3.66667 0.916667C3.96596 0.916667 4.09154 1.01429 4.1965 1.17104C5.57563 3.23538 6.09858 4.00629 6.36029 4.39083C6.61833 4.77033 6.61833 4.77033 6.94696 5.28779C7.20729 5.69708 7.08538 5.92167 6.91488 6.10317C5.48442 7.62667 5.69571 9.20654 6.00692 9.82987C6.46663 10.7493 7.10233 11.8754 8.84262 13.6157C10.2703 15.0434 11.2365 15.526 12.1701 15.9935C12.4272 16.1214 12.7627 16.1925 13.1157 16.1925C13.7234 16.1925 14.6946 15.9894 15.8748 15.0214C16.0421 14.8835 16.1613 14.8674 16.2365 14.8674C16.368 14.8674 16.5257 14.9284 16.7044 15.0485L20.8294 17.804C20.9857 17.908 21.0833 18.0336 21.0833 18.3333C21.0833 18.5886 20.9999 18.6853 20.7593 18.926Z" fill="white" fill-opacity="0.5"/>
</svg>
