<svg width="51" height="51" viewBox="0 0 51 51" fill="none" xmlns="http://www.w3.org/2000/svg">
<path d="M25.4997 50.184C24.6735 50.191 23.8615 49.9691 23.1537 49.5429L14.3089 44.37C10.9977 42.5182 8.23402 39.8251 6.29717 36.5629C4.36033 33.3007 3.31896 29.585 3.27832 25.7914V11.6571C3.27871 10.7047 3.57078 9.77516 4.11523 8.99365C4.65969 8.21213 5.43042 7.6161 6.32375 7.28571L23.8969 0.830566C24.9319 0.451701 26.0676 0.451701 27.1026 0.830566L44.6757 7.28571C45.5691 7.6161 46.3398 8.21213 46.8843 8.99365C47.4287 9.77516 47.7208 10.7047 47.7212 11.6571V25.7914C47.6805 29.585 46.6392 33.3007 44.7023 36.5629C42.7655 39.8251 40.0018 42.5182 36.6906 44.37L27.8457 49.5429C27.138 49.9691 26.326 50.191 25.4997 50.184ZM25.4997 4.19657C25.3841 4.17552 25.2657 4.17552 25.15 4.19657L7.57689 10.6809C7.37895 10.7542 7.20909 10.8879 7.0914 11.0631C6.97371 11.2384 6.91416 11.4462 6.92118 11.6571V25.7914C6.96343 28.948 7.83867 32.0374 9.45835 34.7471C11.078 37.4568 13.3847 39.6906 16.1449 41.2226L24.9897 46.41C25.1462 46.4954 25.3215 46.5402 25.4997 46.5402C25.678 46.5402 25.8533 46.4954 26.0097 46.41L34.8546 41.2226C37.6148 39.6906 39.9215 37.4568 41.5412 34.7471C43.1608 32.0374 44.0361 28.948 44.0783 25.7914V11.6571C44.0792 11.4511 44.0168 11.2498 43.8996 11.0803C43.7823 10.9109 43.6158 10.7817 43.4226 10.71L25.8495 4.25485C25.7374 4.21424 25.6189 4.19449 25.4997 4.19657Z" fill="white"/>
<path d="M23.8967 32.5671C23.4667 32.5643 23.0504 32.4153 22.7164 32.1446L16.4944 26.8989C16.1234 26.5878 15.8912 26.142 15.8488 25.6597C15.8064 25.1774 15.9574 24.698 16.2685 24.327C16.5796 23.956 17.0254 23.7238 17.5077 23.6814C17.99 23.6391 18.4694 23.79 18.8404 24.1011L23.7218 28.2103L32.0567 19.0303C32.3813 18.6709 32.8354 18.4551 33.3191 18.4306C33.8028 18.406 34.2764 18.5745 34.6358 18.8991C34.9952 19.2238 35.2109 19.6779 35.2355 20.1615C35.2601 20.6452 35.0916 21.1189 34.7669 21.4783L25.3247 31.9697C25.1439 32.1665 24.9226 32.3218 24.6761 32.4249C24.4296 32.528 24.1637 32.5766 23.8967 32.5671Z" fill="white"/>
</svg>
